<?xml version="1.0" encoding="utf-8"?>
<!-- Generator: Adobe Illustrator 27.2.0, SVG Export Plug-In . SVG Version: 6.00 Build 0)  -->
<svg version="1.1" id="Layer_1" xmlns="http://www.w3.org/2000/svg" xmlns:xlink="http://www.w3.org/1999/xlink" x="0px" y="0px"
	 viewBox="0 0 841.89 595.28" style="enable-background:new 0 0 841.89 595.28;" xml:space="preserve">
<style type="text/css">
	.st0{fill:#F6881F;}
	.st1{fill:#F68820;}
</style>
<rect x="466.24" y="287.28" width="361.46" height="45.48"/>
<path d="M399.19,107.86v98.53c-20.3-15.99-40.6-31.97-60.89-47.96c0.11-16.86,0.22-33.71,0.33-50.57H399.19z"/>
<rect x="215.36" y="201.09" transform="matrix(-0.7904 -0.6126 0.6126 -0.7904 514.2536 623.6342)" width="296.93" height="45.48"/>
<g>
	<path class="st0" d="M149.69,109.81c0.51,0.32,0.87,0.5,1.17,0.74c6.43,4.99,12.84,10,19.29,14.96c0.97,0.74,1.1,1.23,0.3,2.25
		c-19.62,25.2-39.2,50.42-58.79,75.64c-18.51,23.83-37.01,47.67-55.52,71.51c-5.05,6.5-10.08,13.02-15.15,19.51
		c-3.17,4.05-7.22,6.24-12.51,5.86c-9.76-0.7-15.75-11.9-10.57-20.21c2.51-4.03,5.63-7.68,8.55-11.45
		c20.67-26.64,41.36-53.27,62.04-79.9c19.36-24.93,38.72-49.85,58.08-74.78C147.63,112.6,148.63,111.23,149.69,109.81z"/>
	<path class="st0" d="M151.72,100.18c0.55-0.83,0.8-1.26,1.1-1.64c3.99-5.16,7.99-10.32,12-15.48c2.78-3.57,2.46-5.85-1.17-8.61
		c-8.58-6.51-18.12-10.99-28.47-13.95c-10.65-3.04-21.21-6.4-31.8-9.63c-0.46-0.14-0.91-0.34-1.35-0.8
		c0.51-0.06,1.03-0.15,1.54-0.19c12.86-1.12,25.71-2.38,38.58-3.32c13.78-1.01,26.99,1.48,39.41,7.62c1.99,0.98,3.69,2.59,5.47,3.97
		c8.57,6.64,17.12,13.32,25.69,19.96c0.81,0.63,1.23,1.08,0.54,2.18c-3.09,4.97-2.85,10.85,0.81,15.46
		c2.52,3.17,5.81,5.54,9.41,7.38c2.54,1.29,5.32,1.35,8.1,1.02c3.24-0.39,6.49-0.76,9.71-1.25c2.05-0.31,3.72,0.26,5.3,1.53
		c2.23,1.78,4.55,3.45,6.78,5.14c-9.35,12.04-18.55,23.88-27.86,35.86c-0.41-0.27-0.91-0.55-1.37-0.91
		c-1.87-1.45-3.68-2.97-5.59-4.35c-1.67-1.21-2.47-2.79-2.67-4.82c-0.31-3.15-0.76-6.28-1.14-9.42c-0.54-4.4-2.45-8.03-6.08-10.65
		c-2.07-1.49-4.04-3.25-6.33-4.27c-6.14-2.75-12.2-1.04-16.52,4.33c-1.45,1.8-2.91,3.59-4.24,5.48c-0.76,1.08-1.31,1.15-2.37,0.32
		c-7.78-6.11-15.6-12.16-23.43-18.2C154.52,101.94,153.13,101.12,151.72,100.18z"/>
</g>
<rect x="166.18" y="221.4" width="35.91" height="35.91"/>
<rect x="210.23" y="221.4" width="35.91" height="35.91"/>
<rect x="166.18" y="265.12" width="35.91" height="35.91"/>
<rect x="210.23" y="265.12" width="35.91" height="35.91"/>
<g>
	<path d="M122.77,466.99c-0.82,0.09-2.05,0.14-3.7,0.14c-15.07,0-26.75-4.04-35.06-12.12c-8.31-8.08-12.46-20.25-12.46-36.5
		c0-16.25,4.15-28.42,12.46-36.5c8.31-8.08,20-12.12,35.06-12.12c15.15,0,26.89,4.04,35.2,12.12c8.31,8.08,12.46,20.25,12.46,36.5
		c0,11.32-2.05,20.68-6.16,28.08c-4.11,7.4-10.04,12.78-17.8,16.16l21.37,20.54h-26.16L122.77,466.99z M139.41,442.54
		c4.61-5.16,6.92-12.48,6.92-21.98v-4.11c0-9.5-2.31-16.82-6.92-21.98c-4.61-5.16-11.39-7.74-20.34-7.74
		c-8.95,0-15.71,2.58-20.27,7.74c-4.57,5.16-6.85,12.49-6.85,21.98v4.11c0,9.5,2.28,16.82,6.85,21.98
		c4.56,5.16,11.32,7.74,20.27,7.74C128.02,450.28,134.8,447.7,139.41,442.54z"/>
	<path d="M192.07,457.81c-7.03-6.21-10.55-15.29-10.55-27.25v-59.03h19.86v58.07c0,6.76,1.76,11.89,5.27,15.41
		c3.51,3.52,8.51,5.27,15,5.27c6.48,0,11.53-1.76,15.13-5.27c3.61-3.51,5.41-8.65,5.41-15.41v-58.07h19.86v59.03
		c0,11.96-3.54,21.05-10.61,27.25c-7.08,6.21-17.01,9.31-29.79,9.31C208.96,467.12,199.1,464.02,192.07,457.81z"/>
	<path d="M280.41,371.53h19.86v93.95h-19.86V371.53z"/>
	<path d="M315.06,418.5c0-16.25,3.97-28.42,11.92-36.5c7.94-8.08,19.13-12.12,33.55-12.12c7.94,0,15.09,1.35,21.43,4.04
		c6.34,2.69,11.37,6.8,15.06,12.33c3.7,5.53,5.55,12.26,5.55,20.2h-20.41c0-6.12-1.96-10.93-5.89-14.45
		c-3.93-3.51-9.04-5.27-15.34-5.27c-8.58,0-14.98,2.56-19.17,7.67c-4.2,5.11-6.3,12.46-6.3,22.05v4.11
		c0,19.81,8.49,29.72,25.47,29.72c6.66,0,11.98-1.73,15.96-5.2c3.97-3.47,5.96-8.26,5.96-14.38h19.72c0,8.04-1.83,14.77-5.48,20.2
		c-3.65,5.43-8.63,9.5-14.93,12.19c-6.3,2.69-13.51,4.04-21.64,4.04C330.21,467.12,315.06,450.92,315.06,418.5z"/>
	<path d="M417.36,371.53h19.86v45.33l43.42-45.33h24.1l-36.71,38.21l37.25,55.74h-23.56l-26.98-41.77l-17.53,14.52v27.25h-19.86
		V371.53z"/>
	<path d="M554.31,371.53h68.07v16.85h-48.21v23.15h43.14v16.85h-43.14v37.12h-19.86V371.53z"/>
	<path d="M637.99,371.53h19.86v93.95h-19.86V371.53z"/>
	<path d="M699.35,416.18l-29.45-44.65h24.1l19.04,30.4h0.68l18.9-30.4h22.46l-29.58,44.37l32.6,49.58h-23.97l-22.19-35.33h-0.68
		l-21.91,35.33h-22.46L699.35,416.18z"/>
</g>
<g>
	<path class="st1" d="M175.55,504.44h6.36v14.52l13.91-14.52h7.72l-11.76,12.24l11.94,17.86h-7.55l-8.64-13.38l-5.62,4.65v8.73
		h-6.36V504.44z"/>
	<path class="st1" d="M236.45,531.19c-2.66-2.59-3.99-6.49-3.99-11.69s1.33-9.11,3.99-11.69c2.66-2.59,6.41-3.88,11.23-3.88
		c4.86,0,8.61,1.29,11.28,3.88c2.66,2.59,3.99,6.49,3.99,11.69s-1.33,9.11-3.99,11.69c-2.66,2.59-6.42,3.88-11.28,3.88
		C242.86,535.07,239.11,533.78,236.45,531.19z M254.2,527.19c1.48-1.65,2.22-4,2.22-7.04v-1.32c0-3.04-0.74-5.39-2.22-7.04
		c-1.48-1.65-3.65-2.48-6.52-2.48c-2.87,0-5.03,0.83-6.49,2.48c-1.46,1.65-2.19,4-2.19,7.04v1.32c0,3.04,0.73,5.39,2.19,7.04
		c1.46,1.65,3.63,2.48,6.49,2.48C250.55,529.67,252.72,528.85,254.2,527.19z"/>
	<path class="st1" d="M294.02,504.44h6.36v11.94h13.08v-11.94h6.36v30.1h-6.36v-12.68h-13.08v12.68h-6.36V504.44z"/>
	<path class="st1" d="M395.76,533.99c-1.92-0.72-3.44-1.78-4.59-3.18c-1.14-1.4-1.71-3.1-1.71-5.09l0.04-0.96h6.45l-0.04,0.7
		c0,1.29,0.57,2.31,1.71,3.07c1.14,0.76,2.74,1.14,4.78,1.14c2.16,0,3.73-0.29,4.69-0.86s1.45-1.34,1.45-2.3
		c0-0.85-0.31-1.56-0.94-2.13c-0.63-0.57-1.42-1.02-2.37-1.36c-0.95-0.34-2.26-0.74-3.93-1.21c-2.37-0.67-4.29-1.32-5.75-1.93
		c-1.46-0.61-2.72-1.53-3.77-2.74s-1.58-2.82-1.58-4.8c0-2.75,1.11-4.84,3.33-6.27c2.22-1.43,5.18-2.15,8.86-2.15
		c3.48,0,6.33,0.74,8.53,2.22c2.21,1.48,3.31,3.69,3.31,6.65v0.53h-6.32v-0.39c0-1.11-0.5-1.99-1.51-2.63
		c-1.01-0.64-2.38-0.96-4.1-0.96c-1.84,0-3.25,0.25-4.23,0.75c-0.98,0.5-1.47,1.19-1.47,2.06c0,0.67,0.29,1.25,0.88,1.73
		c0.58,0.48,1.32,0.88,2.19,1.18c0.88,0.31,2.12,0.68,3.73,1.12c2.4,0.64,4.37,1.28,5.9,1.91c1.54,0.63,2.86,1.56,3.97,2.79
		s1.67,2.84,1.67,4.83c0,3.22-1.15,5.59-3.44,7.11c-2.3,1.52-5.43,2.28-9.41,2.28C399.79,535.07,397.67,534.71,395.76,533.99z"/>
	<path class="st1" d="M455.06,504.44h7.99l11.76,30.1h-6.93l-2.15-5.75h-13.69l-2.15,5.75h-6.58L455.06,504.44z M463.7,523.49
		l-2.85-7.63c-0.23-0.61-0.57-1.64-1.01-3.07c-0.44-1.43-0.73-2.38-0.88-2.85h-0.22c-0.15,0.47-0.44,1.42-0.88,2.85
		c-0.44,1.43-0.78,2.46-1.01,3.07l-2.85,7.63H463.7z"/>
	<path class="st1" d="M504.16,504.44h9.92l4.21,16.59c0.23,0.82,0.5,2.03,0.81,3.62c0.31,1.59,0.5,2.65,0.59,3.18h0.22
		c0.09-0.55,0.27-1.65,0.55-3.27c0.28-1.62,0.5-2.8,0.68-3.53l4.21-16.59h9.48v30.1h-6.36v-19.18c0-0.55,0.04-1.4,0.11-2.54
		c0.07-1.14,0.12-1.9,0.15-2.28h-0.22l-0.92,3.55l-5.18,20.45h-6.06l-5.18-20.45l-0.92-3.55h-0.22c0.03,0.38,0.08,1.16,0.15,2.33
		c0.07,1.17,0.11,2,0.11,2.5v19.18h-6.14V504.44z"/>
	<path class="st1" d="M570.42,532.09c-2.25-1.99-3.38-4.9-3.38-8.73v-18.91h6.36v18.61c0,2.17,0.56,3.81,1.69,4.94
		c1.12,1.13,2.73,1.69,4.8,1.69c2.08,0,3.69-0.56,4.85-1.69c1.16-1.13,1.73-2.77,1.73-4.94v-18.61h6.36v18.91
		c0,3.83-1.13,6.74-3.4,8.73c-2.27,1.99-5.45,2.98-9.54,2.98C575.83,535.07,572.67,534.08,570.42,532.09z"/>
	<path class="st1" d="M625.05,504.44h6.36v30.1h-6.36V504.44z"/>
</g>
</svg>
