<svg version="1.2" xmlns="http://www.w3.org/2000/svg" viewBox="0 0 917 515" width="917" height="515">
	<title>Logo_Tryout_04-ai</title>
	<style>
		tspan { white-space:pre } 
		.s0 { fill: #231f20 } 
		.s1 { fill: #f5871f } 
		.t2 { font-size: 32px;fill: #2c2e35;font-family: "anteroly" } 
		.t3 { font-size: 16px;fill: #ff8425;font-family: "anteroly" } 
	</style>
	<g id="Layer 1">
		<path id="&lt;Path&gt;" class="s0" d="m917 306.5h-385.8v-48.6h385.8z"/>
		<path id="&lt;Path&gt;" class="s0" d="m459.7 66.5v105.1q-32.5-25.6-65-51.2 0.2-27 0.4-53.9z"/>
		<path id="&lt;Path&gt;" class="s0" d="m311.6 74l250.4 194.1-29.7 38.4-250.5-194.2z"/>
		<path id="&lt;Path&gt;" class="s1" d="m193.4 68.6q-96.4 119-192.8 238.1 26.2 0 52.5 0 81.3-109.5 162.5-219-11.1-9.6-22.2-19.1z"/>
		<path id="&lt;Path&gt;" class="s0" d=""/>
		<g id="&lt;Group&gt;">
			<path id="&lt;Path&gt;" class="s1" d="m193.4 68.6c0.6 0.3 1 0.5 1.3 0.7 6.8 5.4 13.7 10.7 20.6 16 1 0.8 1.1 1.3 0.3 2.4q-31.4 40.3-62.8 80.7-29.6 38.2-59.2 76.3c-5.4 7-10.8 13.9-16.2 20.9-3.4 4.3-7.7 6.6-13.3 6.2-10.4-0.7-16.8-12.7-11.3-21.6 2.7-4.3 6-8.2 9.1-12.2q33.1-42.6 66.2-85.2 31-39.9 62-79.8c1.1-1.5 2.2-2.9 3.3-4.4z"/>
			<path id="&lt;Path&gt;" class="s1" d="m195.6 58.3c0.6-0.9 0.8-1.4 1.2-1.8q6.4-8.3 12.8-16.5c2.9-3.8 2.6-6.2-1.3-9.2-9.1-6.9-19.3-11.7-30.4-14.9-11.3-3.2-22.6-6.8-33.9-10.3-0.5-0.1-1-0.3-1.4-0.8q0.8-0.1 1.6-0.2c13.7-1.2 27.4-2.6 41.2-3.6 14.7-1 28.8 1.6 42 8.2 2.1 1 4 2.7 5.9 4.2 9.1 7.1 18.2 14.2 27.4 21.3 0.9 0.7 1.3 1.2 0.6 2.3-3.3 5.3-3.1 11.6 0.8 16.5 2.7 3.4 6.2 5.9 10.1 7.9 2.7 1.4 5.6 1.5 8.6 1.1 3.5-0.4 6.9-0.8 10.4-1.3 2.2-0.4 3.9 0.2 5.6 1.6 2.4 1.9 4.9 3.7 7.3 5.5-10 12.8-19.8 25.5-29.8 38.2-0.4-0.2-0.9-0.6-1.4-0.9-2-1.6-3.9-3.2-6-4.7-1.8-1.3-2.6-3-2.8-5.1-0.4-3.4-0.8-6.7-1.2-10.1-0.6-4.7-2.7-8.5-6.5-11.3-2.2-1.6-4.3-3.5-6.8-4.6-6.5-2.9-13-1.1-17.6 4.6-1.6 1.9-3.1 3.9-4.5 5.9-0.9 1.1-1.4 1.2-2.6 0.3q-12.4-9.8-25-19.4c-1.3-1.1-2.8-1.9-4.3-2.9z"/>
		</g>
		<path id="&lt;Path&gt;" class="s0" d=""/>
		<path id="&lt;Path&gt;" class="s0" d="m249.3 225.9h-38.3v-38.3h38.3z"/>
		<path id="&lt;Path&gt;" class="s0" d="m296.4 225.9h-38.4v-38.3h38.4z"/>
		<path id="&lt;Path&gt;" class="s0" d="m249.3 272.6h-38.3v-38.3h38.3z"/>
		<path id="&lt;Path&gt;" class="s0" d="m296.4 272.6h-38.4v-38.3h38.4z"/>
		<text id="QUICK FIX
" style="transform: matrix(4,0,0,4,108.074,430.772)" >
			<tspan x="0" y="0" class="t2" dx="0 3 3 3 3 3 3 3 3 3" >QUICK FIX
</tspan>
		</text>
		<text id="KOH SAMUI
" style="transform: matrix(4,0,0,4,264.332,513.948)" >
			<tspan x="0" y="0" class="t3" dx="0 2 2 2 2 2 2 2 2 2" >KOH SAMUI
</tspan>
		</text>
	</g>
</svg>