<?xml version="1.0" encoding="utf-8"?>
<!-- Generator: Adobe Illustrator 28.3.0, SVG Export Plug-In . SVG Version: 6.00 Build 0)  -->
<svg version="1.1" id="Layer_1" xmlns="http://www.w3.org/2000/svg" xmlns:xlink="http://www.w3.org/1999/xlink" x="0px" y="0px"
	 viewBox="0 0 99.21 56.69" style="enable-background:new 0 0 99.21 56.69;" xml:space="preserve">
<style type="text/css">
	.st0{fill:#F6881F;}
	.st1{stroke:#000000;stroke-miterlimit:10;}
	.st2{font-family:'anteroly';}
	.st3{font-size:13.0816px;}
	.st4{letter-spacing:1;}
	.st5{font-size:6.6965px;}
</style>
<rect x="57.07" y="27.88" width="39.2" height="4.93"/>
<path d="M49.8,8.42V19.1c-2.2-1.73-4.4-3.47-6.6-5.2c0.01-1.83,0.02-3.66,0.04-5.48H49.8z"/>
<rect x="29.86" y="18.53" transform="matrix(-0.7904 -0.6126 0.6126 -0.7904 69.4338 65.7489)" width="32.2" height="4.93"/>
<path class="st0" d="M22.74,8.63c-6.53,8.07-13.07,16.14-19.6,24.2c1.78,0,3.56,0,5.34,0c5.5-7.42,11.01-14.84,16.51-22.26
	C24.24,9.93,23.49,9.28,22.74,8.63z"/>
<g>
	<path class="st0" d="M22.74,8.63c0.06,0.03,0.09,0.05,0.13,0.08c0.7,0.54,1.39,1.08,2.09,1.62c0.1,0.08,0.12,0.13,0.03,0.24
		c-2.13,2.73-4.25,5.47-6.38,8.2c-2.01,2.58-4.01,5.17-6.02,7.76c-0.55,0.71-1.09,1.41-1.64,2.12c-0.34,0.44-0.78,0.68-1.36,0.64
		C8.54,29.21,7.89,28,8.45,27.09c0.27-0.44,0.61-0.83,0.93-1.24c2.24-2.89,4.49-5.78,6.73-8.67c2.1-2.7,4.2-5.41,6.3-8.11
		C22.52,8.93,22.63,8.78,22.74,8.63z"/>
	<path class="st0" d="M22.96,7.59c0.06-0.09,0.09-0.14,0.12-0.18c0.43-0.56,0.87-1.12,1.3-1.68c0.3-0.39,0.27-0.63-0.13-0.93
		c-0.93-0.71-1.96-1.19-3.09-1.51c-1.16-0.33-2.3-0.69-3.45-1.04c-0.05-0.02-0.1-0.04-0.15-0.09c0.06-0.01,0.11-0.02,0.17-0.02
		c1.39-0.12,2.79-0.26,4.18-0.36c1.49-0.11,2.93,0.16,4.27,0.83c0.22,0.11,0.4,0.28,0.59,0.43c0.93,0.72,1.86,1.44,2.79,2.16
		c0.09,0.07,0.13,0.12,0.06,0.24C29.3,5.97,29.33,6.6,29.72,7.1c0.27,0.34,0.63,0.6,1.02,0.8c0.27,0.14,0.58,0.15,0.88,0.11
		c0.35-0.04,0.7-0.08,1.05-0.14c0.22-0.03,0.4,0.03,0.58,0.17c0.24,0.19,0.49,0.37,0.74,0.56c-1.01,1.31-2.01,2.59-3.02,3.89
		c-0.04-0.03-0.1-0.06-0.15-0.1c-0.2-0.16-0.4-0.32-0.61-0.47c-0.18-0.13-0.27-0.3-0.29-0.52c-0.03-0.34-0.08-0.68-0.12-1.02
		c-0.06-0.48-0.27-0.87-0.66-1.15c-0.22-0.16-0.44-0.35-0.69-0.46c-0.67-0.3-1.32-0.11-1.79,0.47c-0.16,0.2-0.32,0.39-0.46,0.59
		c-0.08,0.12-0.14,0.12-0.26,0.03c-0.84-0.66-1.69-1.32-2.54-1.97C23.27,7.78,23.12,7.69,22.96,7.59z"/>
</g>
<path d="M52.88-4.22"/>
<rect x="24.53" y="20.73" width="3.89" height="3.89"/>
<rect x="29.31" y="20.73" width="3.89" height="3.89"/>
<rect x="24.53" y="25.47" width="3.89" height="3.89"/>
<rect x="29.31" y="25.47" width="3.89" height="3.89"/>
<text transform="matrix(1 0 0 1 14.0707 45.4394)" class="st1 st2 st3 st4">QUICK FIX</text>
<text transform="matrix(1 0 0 1 29.9492 53.893)" class="st0 st2 st5">KOH SAMUI</text>
</svg>
